STARTFONT 2.1
COMMENT  Special symbols for Z specifications
COMMENT  Copyright 1996 Technical University of Berlin
COMMENT  **** CURRENTLY INCOMPLETE, see msz-tmpldef.el for
COMMENT  **** missing characters and their encoding
FONT -TUB-Zsymbol-Medium-R-Normal--12-120-75-75-P-74-TUB-FontSpecific
SIZE 12 75 75
FONTBOUNDINGBOX 14 16 -1 -4
STARTPROPERTIES 22
FOUNDRY "TUB"
FAMILY_NAME "Zsymbol"
WEIGHT_NAME "Medium"
SLANT "R"
SETWIDTH_NAME "Normal"
PIXEL_SIZE 12
POINT_SIZE 120
RESOLUTION_X 75
RESOLUTION_Y 75
SPACING "P"
AVERAGE_WIDTH 74
CHARSET_REGISTRY "TUB"
CHARSET_ENCODING "FontSpecific"
CAP_HEIGHT 9
X_HEIGHT 6
FONT_ASCENT 11
FONT_DESCENT 3
FACE_NAME "Zsymbol"
COPYRIGHT "Copyright (c) 1996 Technical University of Berlin"
RELATIVE_SETWIDTH 50
RELATIVE_WEIGHT 50
FULL_NAME "Zsymbol"
ENDPROPERTIES
CHARS 20
STARTCHAR space
ENCODING 32
SWIDTH 250 0
DWIDTH 3 0
BBX 1 1 0 0
BITMAP
00
ENDCHAR
STARTCHAR num
ENCODING 46
SWIDTH 556 0
DWIDTH 7 0
BBX 6 9 0 0
BITMAP
fc
04
0c
14
28
50
a0
c0
fc
ENDCHAR
STARTCHAR nat
ENCODING 47
SWIDTH 556 0
DWIDTH 7 0
BBX 7 9 0 0
BITMAP
e2
b2
d2
aa
aa
96
96
8a
8e
ENDCHAR
STARTCHAR rat
ENCODING 48
SWIDTH 556 0
DWIDTH 7 0
BBX 8 9 0 0
BITMAP
78
a4
a4
a4
a4
a4
a4
6c
3a
ENDCHAR
STARTCHAR real
ENCODING 49
SWIDTH 556 0
DWIDTH 7 0
BBX 6 9 0 0
BITMAP
f8
a4
a4
a4
a8
b0
b0
a8
a4
ENDCHAR
STARTCHAR power
ENCODING 79
SWIDTH 556 0
DWIDTH 7 0
BBX 6 9 0 0
BITMAP
f8
a4
a4
a4
a4
b8
a0
a0
a0
ENDCHAR
STARTCHAR finset
ENCODING 80
SWIDTH 556 0
DWIDTH 7 0
BBX 6 9 0 0
BITMAP
fc
a0
a0
a0
b8
a0
a0
a0
a0
ENDCHAR
STARTCHAR pfun
ENCODING 71
SWIDTH 987 0
DWIDTH 12 0
BBX 12 5 0 1
BITMAP
0440
0420
fff0
0420
0440
ENDCHAR
STARTCHAR pinj
ENCODING 72
SWIDTH 987 0
DWIDTH 12 0
BBX 12 5 0 1
BITMAP
8440
4420
3ff0
4420
8440
ENDCHAR
STARTCHAR inj
ENCODING 73
SWIDTH 987 0
DWIDTH 12 0
BBX 12 5 0 1
BITMAP
8040
4020
7ff0
4020
8040
ENDCHAR
STARTCHAR psurj
ENCODING 74
SWIDTH 987 0
DWIDTH 12 0
BBX 12 5 0 1
BITMAP
0540
04a0
fff0
04a0
0540
ENDCHAR
STARTCHAR surj
ENCODING 75
SWIDTH 987 0
DWIDTH 12 0
BBX 12 5 0 1
BITMAP
0140
00a0
fff0
00a0
0140
ENDCHAR
STARTCHAR bij
ENCODING 76
SWIDTH 987 0
DWIDTH 12 0
BBX 12 5 0 1
BITMAP
8140
40a0
7ff0
40a0
8140
ENDCHAR
STARTCHAR ffun
ENCODING 77
SWIDTH 987 0
DWIDTH 12 0
BBX 12 5 0 1
BITMAP
0a40
0a20
fff0
0a20
0a40
ENDCHAR
STARTCHAR finj
ENCODING 78
SWIDTH 987 0
DWIDTH 12 0
BBX 12 5 0 1
BITMAP
8a40
4a20
7ff0
4a20
8a40
ENDCHAR
STARTCHAR hline
ENCODING 100
SWIDTH 603 0
DWIDTH 7 0
BBX 8 16 0 -4
BITMAP
00
00
00
00
00
00
00
00
00
ff
00
00
00
00
00
00
ENDCHAR
STARTCHAR vline
ENCODING 101
SWIDTH 603 0
DWIDTH 7 0
BBX 1 16 0 -4
BITMAP
80
80
80
80
80
80
80
80
80
80
80
80
80
80
80
80
ENDCHAR
STARTCHAR ucorner
ENCODING 102
SWIDTH 603 0
DWIDTH 7 0
BBX 7 16 0 -4
BITMAP
00
00
00
00
00
00
00
00
00
fe
80
80
80
80
80
80
ENDCHAR
STARTCHAR mcorner
ENCODING 103
SWIDTH 603 0
DWIDTH 7 0
BBX 7 16 0 -4
BITMAP
80
80
80
80
80
80
80
80
80
fe
80
80
80
80
80
80
ENDCHAR
STARTCHAR lcorner
ENCODING 104
SWIDTH 603 0
DWIDTH 7 0
BBX 7 16 0 -4
BITMAP
80
80
80
80
80
80
80
80
80
fe
00
00
00
00
00
00
ENDCHAR
ENDFONT
